<svg width="48" height="48" viewBox="0 0 48 48" fill="none" xmlns="http://www.w3.org/2000/svg">
<rect width="48" height="48" rx="8" fill="#413A4F"/>
<path d="M24 13.5C18.2016 13.5 13.5 18.3234 13.5 24.2672C13.5 29.025 16.5094 33.0562 20.6812 34.4812C20.7398 34.494 20.7995 34.5002 20.8594 34.5C21.2484 34.5 21.3984 34.2141 21.3984 33.9656C21.3984 33.7078 21.3891 33.0328 21.3844 32.1328C21.0371 32.2142 20.6817 32.2567 20.325 32.2594C18.3047 32.2594 17.8453 30.6891 17.8453 30.6891C17.3672 29.4469 16.6781 29.1141 16.6781 29.1141C15.7641 28.4719 16.6734 28.4531 16.7437 28.4531H16.7484C17.8031 28.5469 18.3563 29.5687 18.3563 29.5687C18.8813 30.4875 19.5844 30.7453 20.2125 30.7453C20.6278 30.737 21.0367 30.6412 21.4125 30.4641C21.5063 29.7703 21.7781 29.2969 22.0781 29.025C19.7484 28.7531 17.2969 27.8297 17.2969 23.7047C17.2969 22.5281 17.7047 21.5672 18.375 20.8172C18.2672 20.5453 17.9062 19.4484 18.4781 17.9672C18.5548 17.9488 18.6337 17.9409 18.7125 17.9437C19.0922 17.9437 19.95 18.0891 21.3656 19.0734C23.0857 18.5922 24.9049 18.5922 26.625 19.0734C28.0406 18.0891 28.8984 17.9437 29.2781 17.9437C29.3569 17.9409 29.4358 17.9488 29.5125 17.9672C30.0844 19.4484 29.7234 20.5453 29.6156 20.8172C30.2859 21.5719 30.6937 22.5328 30.6937 23.7047C30.6937 27.8391 28.2375 28.7484 25.8984 29.0156C26.2734 29.3484 26.6109 30.0047 26.6109 31.0078C26.6109 32.4469 26.5969 33.6094 26.5969 33.9609C26.5969 34.2141 26.7422 34.5 27.1312 34.5C27.1942 34.5003 27.2571 34.494 27.3187 34.4812C31.4953 33.0562 34.5 29.0203 34.5 24.2672C34.5 18.3234 29.7984 13.5 24 13.5Z" fill="#F5F6F6"/>
</svg>
